# xmcd
#
# Track frame offsets:
#	150
#	11677
#	23372
#	37795
#	49616
#	62084
#	71561
#	78795
#	89619
#	101870
#	114846
#	128160
#	140549
#	150704
#	163322
#	175024
#	186916
#	199011
#	210866
#	222951
#	235541
#	247790
#	260922
#	272554
#	285149
#	297366
#	305124
#
# Disc length: 4229
#
# Revision: 1
# Processed by: cddbd v1.5.1PL0 Copyright (c) Steve Scherf et al.
# Submitted via: Feurio! 1.60.2ß - http://www.feurio.com
# Normalized: r0:DSETVAR1
#
DISCID=7110831b
DTITLE=Various Artist - American Roots - A history of american folk music - CD 3
DYEAR=1900
DGENRE=
TTITLE0=Bill Monroe and His Bluegrass boys - Orange Blossom Special
TTITLE1=The Delmore Brothers - Brown's ferry blues
TTITLE2=The Blue Sky Boys - Row us over the tide
TTITLE3=Burl Ives - The big Rocki Candy Mountain
TTITLE4=Jack Guthrie - Oklahoma Hills
TTITLE5=Merle Travis - Nine pound hammer
TTITLE6=Merle Travis - Cannonball Rag
TTITLE7=Gene Autry - Red River Valley
TTITLE8=Bill Monroe and His Bluegrass Boys - Mule skinner blues
TTITLE9=Roay Acuff and His Crazy Tennesseans - Great Speckled bird
TTITLE10=The Delmore Brothers - Take it to the captain
TTITLE11=The Blue Sky Boys - Garden in the sky
TTITLE12=Merle Travis - Ain't that a cryin' shame
TTITLE13=Johnny Lee Wills and His Boys - Milk cow blues
TTITLE14=Wiley Walker and Gene Sullivan - When my blue moon turns to gold again
TTITLE15=Bill Monroe and His Bluegrass Boys - Footprints in the snow
TTITLE16=The Delmore Brothers - You can't do wrong and get by
TTITLE17=The Blue Sky Boys - Why should it end this way
TTITLE18=Bob Wills and His Texas Playboys - Cotton-eyed Joe
TTITLE19=Roy Acuff and His Smokey Mountain Boys - Night train to Memphis
TTITLE20=The Rice Brothers Gang - You are my sunshine
TTITLE21=The Delmore Brothers - Rounder's Blues
TTITLE22=Bill Monroe and His Bluegrass Boys - Rocky Road Blues
TTITLE23=Roy Acuff and His Crazy Tennesseans - Wabash Cannonball
TTITLE24=Gene Autry - It makes no difference
TTITLE25=Merle Travis - Pigmeat Strut
TTITLE26=Bill Monroe and His Bluegrass Boys - No letter in the mail
EXTD=
EXTT0=
EXTT1=
EXTT2=
EXTT3=
EXTT4=
EXTT5=
EXTT6=
EXTT7=
EXTT8=
EXTT9=
EXTT10=
EXTT11=
EXTT12=
EXTT13=
EXTT14=
EXTT15=
EXTT16=
EXTT17=
EXTT18=
EXTT19=
EXTT20=
EXTT21=
EXTT22=
EXTT23=
EXTT24=
EXTT25=
EXTT26=
PLAYORDER=
